<?xml version="1.0" standalone="no"?>
<!DOCTYPE svg PUBLIC "-//W3C//DTD SVG 20010904//EN"
 "http://www.w3.org/TR/2001/REC-SVG-20010904/DTD/svg10.dtd">
<svg version="1.0" xmlns="http://www.w3.org/2000/svg"
 width="1024.000000pt" height="1024.000000pt" viewBox="0 0 1024.000000 1024.000000"
 preserveAspectRatio="xMidYMid meet">

<g transform="translate(0.000000,1024.000000) scale(0.100000,-0.100000)"
fill="#000000" stroke="none">
<path d="M5686 9310 c-14 -18 -26 -35 -26 -40 0 -13 66 -80 79 -80 6 0 25 13
42 28 39 35 34 57 -19 92 -20 14 -40 26 -43 28 -4 2 -18 -11 -33 -28z"/>
<path d="M4542 9304 c-18 -12 -20 -19 -12 -35 16 -28 58 -25 72 7 10 21 9 27
-3 35 -20 12 -31 11 -57 -7z"/>
<path d="M6113 9277 c-21 -18 -54 -45 -74 -59 -20 -15 -44 -44 -54 -65 -10
-21 -26 -49 -36 -62 -32 -41 -25 -91 23 -155 26 -35 53 -60 74 -68 18 -6 49
-31 69 -55 52 -62 106 -55 130 18 6 18 20 37 31 43 62 35 106 71 120 98 20 39
13 101 -14 131 -11 12 -24 36 -29 52 -5 17 -28 44 -50 60 -22 17 -50 45 -62
63 -30 45 -76 45 -128 -1z m82 -109 c8 -18 28 -49 44 -68 17 -20 31 -49 33
-69 3 -32 0 -35 -30 -43 -24 -6 -36 -17 -44 -38 -12 -37 -40 -39 -62 -6 -8 14
-28 31 -43 38 -49 23 -45 116 7 143 16 8 37 29 45 45 20 38 31 38 50 -2z"/>
<path d="M4175 9261 c-41 -18 -86 -77 -92 -120 -5 -34 -1 -47 22 -77 24 -32
79 -74 97 -74 3 0 33 23 66 51 72 60 84 92 53 142 -42 68 -99 98 -146 78z"/>
<path d="M6841 9157 c-6 -16 -23 -28 -53 -36 -23 -7 -60 -22 -81 -33 l-38 -19
-40 32 c-50 40 -63 29 -54 -50 5 -46 2 -60 -20 -98 -17 -27 -29 -67 -33 -106
-7 -59 -8 -62 -37 -67 -25 -5 -30 -10 -27 -30 4 -43 10 -50 42 -50 33 0 30 5
74 -110 l25 -64 -24 -26 c-29 -31 -32 -59 -7 -90 21 -26 42 -20 66 20 9 17 21
30 26 30 4 0 32 -11 62 -25 29 -14 64 -25 78 -25 17 0 30 -9 42 -30 13 -23 24
-30 47 -30 26 0 32 5 39 32 7 27 14 34 45 40 21 4 56 17 79 29 32 16 46 19 63
11 17 -8 28 -7 41 2 14 11 15 18 6 44 -9 27 -7 38 12 74 13 24 29 60 36 81 10
31 16 37 40 37 63 0 84 72 23 78 -33 3 -33 4 -33 55 0 30 -9 70 -20 95 -26 58
-80 132 -96 132 -28 0 -180 73 -199 96 -27 32 -72 33 -84 1z m3 -81 c9 -36 45
-44 66 -16 l17 22 47 -20 c51 -23 156 -127 181 -178 10 -21 15 -63 15 -123 0
-78 -4 -99 -25 -142 -14 -27 -34 -53 -43 -56 -9 -3 -33 -21 -53 -40 -49 -47
-103 -65 -138 -47 -37 20 -62 17 -68 -6 -3 -11 -6 -20 -8 -20 -13 0 -135 74
-170 104 -66 54 -85 90 -85 156 0 30 -4 61 -9 69 -11 16 8 91 37 147 24 47 99
116 152 139 19 9 42 20 50 25 23 14 27 12 34 -14z"/>
<path d="M6793 8960 c-58 -30 -97 -73 -113 -123 -8 -23 -18 -48 -23 -55 -13
-17 -1 -68 28 -118 34 -58 96 -88 196 -92 62 -3 83 0 116 17 73 37 107 119 93
221 -15 105 -74 154 -198 166 -46 4 -65 1 -99 -16z m-17 -135 c-4 -14 -9 -45
-13 -70 -7 -56 -19 -50 -28 16 -6 42 -4 53 11 64 28 21 37 18 30 -10z m132
-18 c6 -7 13 -31 15 -55 6 -48 -10 -72 -47 -72 -30 0 -45 19 -53 63 -4 27 -1
39 16 56 24 24 53 27 69 8z"/>
<path d="M3270 9121 c-20 -24 -49 -45 -78 -56 -26 -10 -123 -57 -217 -104
l-170 -86 -201 -5 -201 -5 -37 -29 c-57 -43 -69 -81 -64 -211 3 -94 7 -116 28
-155 29 -52 74 -85 128 -94 l39 -6 5 -105 c5 -120 17 -144 82 -178 28 -15 65
-21 151 -25 136 -6 160 -1 180 38 24 47 18 91 -25 176 -21 43 -37 80 -35 82 2
2 16 -5 32 -16 15 -11 93 -52 173 -92 80 -40 173 -92 208 -117 76 -54 106 -55
133 -3 18 32 19 66 19 508 l0 473 -25 24 c-16 17 -35 25 -59 25 -29 0 -41 -7
-66 -39z m20 -486 c0 -190 -2 -345 -4 -345 -3 0 -78 36 -168 79 -90 44 -190
90 -223 104 l-60 25 -3 129 -3 128 223 112 c123 61 226 112 231 112 4 1 7
-154 7 -344z m-582 -2 l-3 -128 -117 -3 c-147 -3 -153 1 -163 112 -9 91 -2
124 28 136 12 5 75 9 140 9 l118 1 -3 -127z m43 -320 c17 -38 33 -80 36 -95
l6 -28 -76 0 c-87 0 -82 -6 -92 113 l-7 77 52 0 51 0 30 -67z"/>
<path d="M4895 9140 c-308 -65 -534 -245 -660 -526 -64 -144 -78 -223 -72
-408 6 -207 41 -320 148 -478 107 -158 292 -302 471 -367 249 -91 505 -68 747
67 257 144 418 372 466 661 33 195 6 381 -81 560 -83 174 -181 284 -334 375
-201 120 -459 163 -685 116z m145 -343 l0 -244 -61 -17 -61 -17 -31 29 c-70
64 -307 301 -307 307 0 11 42 43 95 74 60 35 175 76 265 95 111 24 100 50 100
-227z m254 209 c94 -24 204 -74 259 -119 l28 -22 -166 -165 c-91 -91 -168
-167 -170 -169 -3 -2 -25 2 -50 9 l-45 13 0 238 0 239 24 0 c13 0 67 -11 120
-24z m-782 -251 c11 -14 77 -78 146 -142 179 -165 170 -150 133 -226 -16 -34
-32 -70 -35 -79 -5 -17 -25 -18 -241 -18 l-236 0 6 48 c13 96 36 169 81 260
43 85 107 182 121 182 3 0 14 -11 25 -25z m1213 -59 c25 -35 59 -97 76 -137
27 -64 30 -82 25 -134 -7 -73 -13 -116 -18 -120 -2 -1 -94 -5 -205 -7 -203 -4
-203 -4 -203 17 0 34 -21 88 -44 113 l-21 24 80 71 c44 39 118 109 165 154 47
46 88 83 92 83 4 0 28 -29 53 -64z m-570 -275 c107 -50 155 -165 104 -251 -51
-84 -95 -112 -181 -111 -73 0 -114 23 -157 87 -52 79 -53 141 -2 211 55 75
154 102 236 64z m-397 -256 c2 -11 15 -43 29 -72 l26 -52 -71 -78 c-39 -43
-113 -120 -165 -172 l-95 -94 -45 69 c-89 139 -128 235 -145 362 l-9 62 236
-2 c227 -3 236 -4 239 -23z m195 -215 c31 -11 63 -20 72 -20 13 0 15 -32 15
-246 l0 -247 -46 7 c-86 11 -188 47 -294 103 -58 30 -109 58 -114 63 -14 13 6
38 161 202 81 86 148 157 148 157 1 1 26 -8 58 -19z m349 -42 c23 -29 82 -98
130 -152 49 -55 88 -103 88 -107 0 -16 -163 -75 -325 -116 -11 -3 -25 -12 -31
-19 -8 -10 -13 11 -17 84 -9 135 -8 304 2 320 8 13 74 41 98 42 6 0 31 -24 55
-52z"/>
<path d="M5067 8300 c-18 -14 -27 -31 -27 -49 0 -54 50 -69 89 -27 23 25 23
25 5 57 -24 41 -35 44 -67 19z"/>
<path d="M3680 9064 c-120 -85 -150 -110 -150 -123 0 -5 9 -19 19 -32 l19 -24
44 32 c23 18 87 60 141 93 96 61 107 73 87 111 -18 32 -51 21 -160 -57z"/>
<path d="M3885 8942 c-121 -55 -255 -127 -260 -140 -7 -20 13 -52 34 -52 24 0
147 43 196 68 22 12 62 30 90 42 59 25 66 35 53 69 -18 48 -32 50 -113 13z"/>
<path d="M7570 8788 c-42 -28 -128 -145 -129 -175 -1 -22 46 -91 102 -150 38
-41 113 -61 153 -41 16 7 45 35 65 61 20 27 50 57 68 68 42 26 43 69 1 100
-16 13 -34 37 -40 55 -6 18 -29 49 -51 68 -33 31 -46 36 -88 36 -33 0 -58 -7
-81 -22z m104 -150 c22 -31 20 -52 -8 -84 -23 -27 -24 -28 -50 -11 -28 19 -35
61 -16 98 14 26 55 24 74 -3z"/>
<path d="M3614 8646 c-3 -8 0 -27 8 -43 l13 -28 185 -3 c102 -1 195 0 207 3
25 6 37 35 28 65 -6 19 -15 20 -221 20 -178 0 -216 -2 -220 -14z"/>
<path d="M6172 8594 c-12 -8 -22 -22 -22 -31 0 -21 39 -73 55 -73 19 0 66 59
59 73 -27 48 -55 57 -92 31z"/>
<path d="M3646 8512 c-28 -27 25 -78 125 -118 35 -15 86 -37 113 -51 47 -24
50 -24 63 -7 7 10 13 24 13 32 0 20 -55 69 -87 77 -16 3 -57 18 -93 32 -73 29
-126 43 -134 35z"/>
<path d="M1700 8452 c-33 -16 -35 -20 -40 -77 -6 -71 -22 -80 -86 -45 -55 31
-81 23 -149 -46 -68 -69 -75 -92 -46 -151 15 -32 18 -45 9 -47 -60 -17 -107
-40 -113 -54 -4 -9 -9 -54 -12 -99 -7 -102 6 -127 72 -145 49 -13 57 -32 34
-82 -6 -13 -9 -37 -5 -51 8 -33 99 -126 146 -150 32 -17 35 -17 86 5 29 12 58
19 64 15 5 -3 10 -27 10 -53 0 -26 4 -52 8 -59 20 -32 113 -42 212 -23 74 14
90 31 90 97 0 52 0 53 30 53 17 0 49 -9 71 -20 23 -12 49 -18 59 -15 26 8 149
144 156 171 3 12 -2 36 -11 54 -19 38 -15 45 48 75 l42 20 3 97 c3 107 3 106
-68 152 -36 23 -38 30 -25 97 7 33 3 40 -49 96 -31 33 -70 66 -87 74 -29 12
-36 10 -84 -16 -29 -15 -57 -25 -64 -21 -6 4 -11 26 -12 49 -2 70 -12 91 -49
104 -55 19 -198 16 -240 -5z m184 -121 c-8 -39 9 -67 64 -102 57 -36 78 -36
114 -2 34 32 41 27 62 -45 15 -52 15 -54 -4 -59 -11 -3 -20 -10 -20 -15 0 -25
33 -68 61 -80 99 -41 114 -52 117 -86 5 -47 -12 -62 -72 -63 -72 -1 -100 -11
-104 -36 -3 -20 -29 -39 -39 -29 -2 2 1 24 7 47 14 50 7 131 -15 187 -19 46
-109 119 -168 137 -49 14 -93 6 -188 -35 -37 -17 -72 -30 -78 -30 -6 0 -20 -9
-31 -20 -25 -25 -27 -49 -3 -29 15 13 16 11 9 -11 -34 -117 -34 -169 0 -238
31 -62 91 -112 171 -142 53 -20 58 -20 107 -5 28 9 57 19 64 21 6 3 12 -1 12
-9 0 -8 -18 -22 -40 -32 -28 -13 -37 -22 -30 -29 18 -18 11 -27 -17 -24 -27 3
-28 1 -31 -42 -1 -25 1 -40 5 -34 5 6 16 13 26 17 13 5 17 1 17 -18 0 -24 -3
-25 -60 -25 l-60 0 0 39 c0 47 -8 71 -24 71 -6 0 -24 7 -41 16 -69 36 -75 37
-107 2 -17 -18 -33 -28 -35 -23 -2 6 -21 35 -43 64 -22 29 -40 58 -40 63 0 6
18 30 40 54 61 66 57 71 -63 88 l-82 11 0 55 0 55 39 3 c49 4 114 45 122 77 4
16 -1 34 -15 54 -26 36 -26 35 1 74 13 18 24 33 24 35 1 2 18 -8 39 -22 l37
-25 65 24 c36 13 70 30 74 37 5 7 9 34 9 61 l0 47 65 0 65 0 -6 -29z m22 -304
c31 -28 37 -42 41 -84 9 -89 -40 -143 -129 -143 -34 0 -47 6 -79 39 -34 34
-39 44 -39 85 0 87 45 135 128 136 34 0 49 -6 78 -33z m204 -367 c0 -5 -8 -10
-17 -10 -15 0 -16 2 -3 10 19 12 20 12 20 0z"/>
<path d="M3566 8398 c-24 -34 -20 -63 12 -84 15 -9 67 -54 115 -98 110 -101
126 -110 155 -90 46 32 21 85 -71 150 -28 21 -80 62 -114 91 -33 29 -66 53
-71 53 -6 0 -18 -10 -26 -22z"/>
<path d="M8230 8384 c-67 -18 -141 -67 -209 -139 -58 -61 -65 -95 -30 -139 27
-34 39 -33 68 10 40 58 118 121 177 143 118 45 239 17 335 -78 73 -73 99 -138
99 -254 0 -73 -3 -88 -27 -125 -26 -39 -28 -40 -45 -25 -44 39 -57 75 -47 126
25 136 -77 258 -216 259 -65 1 -107 -21 -152 -80 -41 -54 -57 -112 -48 -175
13 -105 73 -177 162 -198 47 -11 119 -2 139 18 13 13 18 11 49 -14 40 -33 40
-48 2 -77 -25 -18 -42 -21 -135 -20 -160 1 -218 33 -307 172 -22 34 -45 62
-52 62 -18 0 -27 -67 -14 -111 27 -89 151 -197 251 -218 71 -15 218 -14 273 3
l46 14 123 -125 c105 -105 130 -126 167 -134 75 -17 153 18 187 84 18 33 22
115 8 140 -5 8 -58 68 -118 132 -60 63 -115 123 -122 133 -7 10 -13 71 -16
157 -3 132 -5 144 -35 208 -95 200 -309 305 -513 251z m173 -367 c32 -25 46
-96 17 -88 -44 12 -67 11 -78 -1 -9 -12 -6 -20 18 -43 17 -16 30 -37 30 -48 0
-17 -5 -19 -45 -15 -61 7 -93 30 -101 74 -8 46 10 109 39 129 32 22 87 19 120
-8z m440 -478 c48 -48 87 -92 87 -97 0 -6 -14 -22 -30 -36 l-31 -25 -67 72
c-36 39 -85 90 -108 111 l-42 39 31 39 32 38 20 -27 c11 -15 59 -66 108 -114z"/>
<path d="M6352 8318 c-6 -7 -13 -29 -17 -50 -11 -58 -37 -78 -99 -78 -49 0
-54 -2 -60 -25 -4 -14 -1 -35 5 -46 9 -17 18 -20 47 -16 21 3 47 8 60 12 20 7
25 1 47 -49 24 -54 27 -57 58 -54 25 2 33 8 35 27 5 30 30 70 59 94 30 24 29
30 -11 74 -18 21 -36 51 -40 68 -4 16 -12 36 -18 42 -13 17 -53 17 -66 1z"/>
<path d="M7063 8283 c-31 -6 -63 -49 -63 -84 l0 -29 -86 0 c-132 0 -124 15
-124 -225 0 -138 4 -206 11 -211 8 -4 9 -74 4 -243 l-7 -237 27 -32 27 -33
509 3 c436 3 510 5 523 18 13 13 14 43 5 230 -11 228 -8 267 21 315 26 43 33
88 21 132 -6 21 -15 92 -21 158 -7 66 -13 121 -14 122 -1 1 -46 5 -99 9 -91 7
-97 8 -97 29 0 12 -9 34 -21 49 -30 38 -95 37 -132 -2 -15 -15 -27 -37 -27
-49 0 -23 -32 -33 -100 -33 -38 0 -38 0 -27 29 9 23 7 34 -6 55 -19 28 -63 36
-85 14 -15 -15 -16 -53 -2 -79 10 -18 7 -19 -49 -19 l-59 0 -6 33 c-10 56 -64
90 -123 80z m45 -167 c-3 -77 -9 -93 -27 -81 -12 7 -15 137 -4 148 3 4 13 7
21 7 11 0 13 -15 10 -74z m513 61 c-1 -4 -1 -37 -1 -73 0 -37 -4 -63 -9 -59
-12 7 -25 109 -17 131 6 15 28 16 27 1z m-351 -211 c0 -171 -23 -211 -105
-184 l-40 13 3 70 c3 51 9 76 23 91 14 14 19 35 19 72 l0 52 50 0 50 0 0 -114z
m520 35 c0 -43 3 -93 6 -110 l7 -31 -72 0 c-69 0 -71 1 -71 25 0 15 8 40 17
58 9 18 19 52 22 77 5 36 10 45 31 51 59 16 60 16 60 -70z m-800 37 c1 -18 7
-51 15 -73 21 -56 19 -153 -2 -177 -25 -27 -68 -23 -91 10 -18 24 -19 39 -14
150 l5 122 43 0 c43 0 44 -1 44 -32z m520 6 c0 -14 7 -51 16 -81 23 -78 15
-139 -22 -169 -38 -30 -58 -30 -83 2 -19 24 -21 40 -21 150 l0 124 55 0 c53 0
55 -1 55 -26z m-353 -373 c34 -17 69 -13 123 14 l50 25 -7 -32 c-8 -46 -57
-105 -119 -144 -72 -46 -112 -102 -90 -125 3 -2 62 1 133 7 132 11 328 2 347
-17 17 -15 54 -10 60 9 2 9 8 70 12 135 l6 117 44 0 c41 0 43 -2 49 -32 3 -18
5 -96 3 -173 l-3 -140 -422 -3 -423 -4 0 182 0 182 25 -6 c14 -4 40 0 59 8
l34 14 -10 -30 c-12 -34 6 -256 22 -272 17 -17 37 2 43 41 11 64 8 263 -4 286
-10 20 -9 19 17 -4 16 -15 39 -32 51 -38z m439 12 c-3 -21 -6 -83 -6 -137 l0
-100 -32 31 c-18 18 -62 53 -98 80 -44 33 -74 64 -92 98 -15 27 -26 51 -24 52
1 1 26 -9 55 -24 64 -30 112 -27 150 12 38 38 55 33 47 -12z"/>
<path d="M7475 7839 c-9 -14 -2 -20 14 -10 8 6 9 11 3 15 -6 3 -14 1 -17 -5z"/>
<path d="M6540 8186 c-30 -38 24 -105 74 -92 31 8 44 46 27 82 -8 19 -18 24
-50 24 -21 0 -44 -6 -51 -14z"/>
<path d="M2744 7919 c-39 -41 -75 -59 -121 -59 -21 0 -53 -9 -70 -20 -27 -16
-33 -26 -33 -55 0 -52 -28 -116 -67 -151 -21 -21 -36 -44 -39 -65 -5 -38 -1
-47 39 -73 35 -22 57 -71 57 -130 0 -34 7 -52 27 -76 26 -31 29 -32 89 -27 34
2 66 2 72 -2 5 -3 19 -25 31 -48 16 -32 27 -43 44 -43 33 0 61 23 82 69 21 47
40 56 101 46 36 -5 50 -2 75 16 28 20 31 26 26 63 -7 49 16 92 68 127 59 40
58 85 0 143 -32 32 -36 44 -61 174 -7 37 -58 61 -118 55 -51 -5 -51 -5 -89 41
-45 55 -71 59 -113 15z m61 -96 c-2 -7 -9 -13 -15 -13 -11 0 -14 63 -3 74 9 9
25 -44 18 -61z m-188 -45 c30 -28 29 -38 -2 -38 -14 0 -29 8 -35 19 -23 44 -2
55 37 19z m381 -1 c3 -16 -35 -44 -46 -33 -9 9 20 57 32 53 6 -2 12 -11 14
-20z m-170 -117 c34 -21 72 -74 72 -100 0 -18 -66 -84 -91 -93 -18 -6 -47 11
-91 51 -51 47 -35 111 37 150 28 16 35 15 73 -8z m260 -77 c-4 -20 -35 -30
-50 -15 -15 15 0 32 28 32 19 0 25 -5 22 -17z m-552 -8 c18 -15 18 -15 -5 -13
-14 2 -26 9 -29 16 -5 17 10 15 34 -3z m104 -165 c0 -6 -12 -23 -27 -38 -24
-24 -28 -25 -31 -9 -2 10 4 27 14 38 18 20 44 26 44 9z m358 -30 c7 -21 -20
-6 -37 21 l-16 24 24 -16 c14 -9 27 -22 29 -29z m-198 -86 c0 -15 -6 -24 -15
-24 -15 0 -21 40 -9 53 12 11 24 -3 24 -29z"/>
<path d="M3330 7894 c-6 -14 -10 -28 -10 -32 0 -4 -14 -15 -30 -24 -34 -19
-40 -53 -11 -63 11 -3 29 -21 40 -40 26 -45 51 -44 76 2 13 25 30 41 50 47 74
22 74 22 14 49 -47 21 -57 31 -62 56 -5 25 -12 31 -32 31 -18 0 -28 -7 -35
-26z"/>
<path d="M6134 7846 c-41 -18 -50 -43 -26 -76 28 -37 69 -37 115 0 36 30 50
56 25 48 -6 -2 -21 6 -34 19 -26 26 -37 27 -80 9z"/>
<path d="M3617 7844 c-10 -3 -23 -18 -28 -32 -9 -23 -7 -30 13 -46 20 -16 34
-18 109 -12 47 3 103 12 126 20 37 13 42 13 60 -5 31 -32 85 -35 122 -8 38 28
40 53 6 75 -20 13 -35 15 -68 9 -53 -10 -151 -11 -247 -3 -41 4 -83 4 -93 2z"/>
<path d="M6339 7839 c-17 -6 -29 -19 -32 -36 -4 -22 1 -28 40 -45 36 -16 49
-17 78 -8 18 6 39 17 45 25 10 12 17 11 48 -10 20 -14 46 -25 58 -25 24 0 64
39 64 62 0 43 -73 64 -117 33 -19 -13 -26 -13 -63 0 -48 17 -83 18 -121 4z"/>
<path d="M3310 7576 c-5 -7 -13 -27 -16 -45 -13 -63 69 -111 94 -56 17 37 15
70 -5 87 -25 22 -60 28 -73 14z"/>
<path d="M3713 7485 c-52 -26 -93 -69 -115 -122 -7 -15 -15 -95 -18 -178 l-5
-150 -111 -7 c-178 -11 -296 -63 -416 -183 -104 -103 -166 -229 -187 -376 -15
-109 -15 -2655 0 -2717 15 -61 66 -172 112 -243 81 -126 268 -253 420 -286 63
-13 276 -15 1767 -16 l1695 0 73 26 c100 35 215 108 294 188 69 70 115 152
169 299 l24 65 1 675 c1 371 -1 977 -5 1345 -7 661 -8 671 -30 740 -67 204
-178 338 -355 427 -91 46 -181 68 -282 68 l-71 0 -5 140 c-5 133 -7 144 -37
205 -41 83 -88 117 -170 123 -78 6 -130 -11 -184 -58 -70 -62 -82 -105 -80
-277 l1 -143 -1048 0 c-576 0 -1061 3 -1077 6 l-30 6 5 97 c2 54 -1 129 -8
170 -21 124 -94 192 -215 199 -49 3 -69 -1 -112 -23z m151 -130 c14 -13 30
-35 36 -49 5 -14 9 -175 10 -360 l0 -334 -26 -31 c-21 -26 -33 -31 -68 -31
-44 0 -70 18 -94 66 -8 14 -9 127 -4 363 l7 343 35 29 c42 35 69 37 104 4z
m2615 9 c48 -34 51 -59 51 -417 0 -326 -1 -335 -21 -361 -48 -61 -119 -54
-158 14 -21 38 -22 44 -19 380 l3 342 33 29 c37 33 76 37 111 13z m-2904 -509
l0 -40 -92 -6 c-148 -11 -247 -68 -327 -187 -53 -80 -70 -123 -95 -237 -16
-74 -19 -80 -44 -83 -27 -3 -27 -3 -27 57 0 156 56 295 159 394 98 95 178 129
331 140 92 8 95 6 95 -38z m2518 28 l107 -6 0 -27 c0 -20 -6 -29 -22 -34 -13
-3 -473 -6 -1023 -6 -765 0 -1004 3 -1013 12 -7 7 -12 25 -12 40 l0 28 928 0
c511 0 977 -3 1035 -7z m-1195 -351 c-5 -20 -18 -48 -28 -62 -25 -33 -49 -19
-71 41 l-17 44 52 6 c28 3 56 6 62 7 9 2 9 -8 2 -36z m289 -21 l-4 -46 -53 -3
c-61 -4 -70 4 -70 60 l0 37 53 3 c76 4 79 2 74 -51z m247 17 c-7 -50 -19 -64
-56 -73 -24 -6 -29 -3 -38 20 -14 36 -13 82 3 88 6 3 31 6 55 6 l42 1 -6 -42z
m200 36 c11 -4 16 -19 16 -48 0 -54 -11 -68 -46 -64 -22 2 -29 8 -29 25 0 12
-4 25 -8 29 -30 30 22 75 67 58z m-1004 -28 c0 -13 3 -38 6 -55 l7 -31 -50 0
c-60 0 -73 12 -73 67 l0 43 55 0 c51 0 55 -2 55 -24z m2634 -408 c-4 -13 -9
-536 -10 -1163 -1 -627 -5 -1158 -9 -1179 -20 -130 -143 -296 -283 -383 -92
-57 12 -54 -1824 -53 -1869 1 -1720 -5 -1862 67 -134 67 -223 184 -260 338
-15 64 -17 183 -19 1233 l-2 1162 2139 0 2138 0 -8 -22z"/>
<path d="M3626 5956 c-53 -20 -106 -65 -139 -119 -62 -99 -24 -249 77 -312 43
-26 61 -30 130 -33 69 -3 88 0 126 20 108 56 164 214 111 316 -23 45 -74 98
-113 118 -42 22 -145 27 -192 10z m119 -178 c4 -16 4 -50 0 -74 -6 -42 -8 -44
-40 -44 -38 0 -45 11 -45 80 0 56 17 80 54 73 18 -4 27 -14 31 -35z"/>
<path d="M4346 5955 c-90 -32 -166 -134 -166 -222 0 -76 20 -124 75 -179 44
-44 60 -54 109 -64 176 -36 306 71 306 252 0 71 -22 120 -79 171 -62 56 -159
73 -245 42z m-28 -52 c-3 -19 -54 -56 -68 -51 -11 4 9 30 40 51 30 21 32 21
28 0z m150 -176 c3 -95 -3 -105 -53 -93 -24 6 -25 9 -25 90 0 89 4 96 50 93
24 -2 25 -4 28 -90z"/>
<path d="M5820 5961 c-22 -6 -23 -8 -7 -14 10 -4 16 -11 12 -16 -6 -11 -163
-121 -172 -121 -3 0 -3 14 1 30 8 42 -2 37 -24 -12 -39 -85 -18 -202 48 -271
104 -110 295 -87 366 44 29 52 47 147 36 193 -19 85 -80 148 -160 165 -56 12
-63 12 -100 2z m71 -163 c15 -29 17 -124 2 -139 -19 -19 -94 -15 -110 7 -20
28 -16 97 8 128 27 34 83 37 100 4z"/>
<path d="M6525 5960 c-22 -5 -24 -8 -9 -9 47 -2 36 -22 -30 -56 -22 -11 -58
-35 -80 -52 -46 -37 -61 -41 -52 -15 5 15 5 15 -8 -1 -8 -10 -17 -44 -21 -75
-13 -113 58 -226 159 -253 63 -17 158 -6 210 25 53 31 83 71 102 133 20 67 17
118 -11 178 -30 63 -80 104 -149 122 -55 14 -66 14 -111 3z"/>
<path d="M5271 5807 c1 -94 -2 -122 -16 -143 -20 -31 -70 -53 -139 -61 -61 -7
-116 -29 -116 -45 0 -6 -12 -1 -27 13 -19 16 -16 11 6 -13 66 -72 185 -87 275
-34 82 48 116 108 118 209 1 72 -13 106 -66 156 l-36 35 1 -117z"/>
<path d="M3655 5340 l-30 -8 28 -1 c37 -1 34 -15 -10 -48 -21 -15 -40 -30 -43
-33 -16 -16 -99 -80 -104 -80 -3 0 -6 12 -6 28 l-1 27 -14 -25 c-8 -14 -14
-52 -15 -86 0 -103 29 -161 106 -212 172 -115 402 30 382 239 -7 68 -62 150
-120 177 -49 23 -129 33 -173 22z"/>
<path d="M5767 5324 c-132 -41 -202 -205 -140 -329 44 -87 121 -135 221 -135
59 0 75 4 122 33 43 25 60 44 82 87 51 100 50 184 -4 265 -56 85 -163 115
-281 79z m32 -48 c-35 -28 -133 -85 -140 -81 -17 11 20 61 58 78 47 20 77 25
82 14 1 -4 1 -10 0 -11z"/>
<path d="M6486 5330 c-79 -25 -148 -108 -162 -197 -15 -97 39 -203 128 -247
139 -70 295 -1 343 150 34 109 2 201 -93 269 -37 25 -53 30 -115 32 -40 1 -85
-2 -101 -7z m4 -49 c0 -12 -81 -66 -102 -67 -15 -1 -15 1 -1 23 10 15 22 22
32 18 8 -3 12 -3 8 1 -4 4 7 13 25 20 18 6 34 12 36 13 1 0 2 -3 2 -8z"/>
<path d="M6395 5230 c-3 -5 -1 -10 4 -10 6 0 11 5 11 10 0 6 -2 10 -4 10 -3 0
-8 -4 -11 -10z"/>
<path d="M5193 5316 c61 -22 67 -32 65 -100 -1 -43 -2 -50 -5 -23 -4 32 -7 37
-21 32 -9 -4 -38 -10 -64 -12 -27 -3 -48 -9 -48 -14 0 -5 -9 -9 -20 -9 -11 0
-20 -7 -20 -15 0 -8 9 -15 20 -15 13 0 20 -7 20 -20 0 -30 55 -28 65 3 7 20 8
19 12 -10 4 -27 9 -33 29 -33 29 0 32 -21 7 -51 -32 -38 -68 -49 -157 -49 -49
0 -88 -4 -91 -11 -4 -6 -13 -8 -21 -5 -7 3 -16 1 -19 -5 -4 -5 1 -12 9 -15 9
-3 14 -10 11 -14 -10 -16 68 -69 117 -80 59 -15 98 -8 162 28 62 34 111 103
126 179 16 73 3 115 -52 178 -45 51 -89 75 -135 75 -26 -1 -25 -2 10 -14z"/>
<path d="M4620 5218 c0 -13 -11 -33 -24 -45 -15 -14 -26 -40 -31 -69 -8 -55
-59 -117 -112 -136 -31 -11 -34 -16 -29 -40 4 -21 2 -28 -9 -28 -8 0 -15 -4
-15 -10 0 -5 -12 -10 -27 -11 -23 -1 -21 -3 11 -10 53 -13 140 4 189 37 76 50
117 202 78 289 -22 50 -31 56 -31 23z"/>
<path d="M5020 5215 c-10 -12 -10 -15 2 -15 8 0 15 7 15 15 0 8 -1 15 -2 15
-2 0 -8 -7 -15 -15z"/>
<path d="M3628 4710 c-35 -10 -101 -51 -94 -57 3 -3 17 4 32 16 15 11 37 21
49 21 20 0 14 -9 -38 -59 -63 -61 -97 -68 -62 -14 18 27 18 28 0 13 -31 -25
-55 -91 -55 -153 0 -95 47 -180 123 -219 58 -30 157 -30 213 -1 49 26 110 92
131 141 17 41 19 135 3 177 -42 109 -181 171 -302 135z m119 -157 c16 -21 28
-142 15 -155 -6 -6 -37 -11 -69 -12 l-58 -1 -3 78 c-2 48 2 84 8 92 23 27 85
26 107 -2z"/>
<path d="M4320 4704 c-89 -38 -140 -120 -140 -222 0 -81 17 -127 66 -182 48
-53 105 -73 192 -68 59 3 75 8 117 38 99 72 143 215 95 311 -28 56 -65 96
-112 120 -46 24 -166 25 -218 3z m0 -42 c0 -16 -78 -84 -89 -78 -18 11 -13 26
18 57 27 27 71 40 71 21z m198 -180 l3 -92 -86 0 -85 0 0 85 0 84 33 5 c45 8
99 13 117 12 12 -1 16 -20 18 -94z"/>
<path d="M5026 4700 c-55 -27 -72 -45 -101 -103 -20 -40 -25 -66 -25 -121 1
-105 43 -181 123 -223 40 -20 124 -27 173 -14 54 14 129 81 159 142 61 120 4
273 -122 326 -49 20 -160 16 -207 -7z m64 -26 c0 -10 -123 -104 -136 -104 -23
0 -16 44 11 70 13 13 42 26 62 30 42 7 63 8 63 4z"/>
<path d="M6681 4553 l-2 -128 -30 -30 c-29 -30 -30 -30 -147 -30 -114 0 -117
-1 -120 -23 -5 -34 58 -88 120 -102 94 -23 188 11 241 86 43 60 55 98 56 165
1 49 -4 64 -38 116 -32 50 -56 73 -76 73 -2 0 -4 -57 -4 -127z"/>
<path d="M5992 4644 c2 -44 -23 -216 -34 -237 -21 -40 -69 -57 -158 -57 -139
0 -158 -14 -95 -68 41 -36 85 -47 167 -39 115 10 197 100 206 226 4 59 1 75
-19 110 -17 31 -28 41 -42 37 -15 -4 -16 -2 -6 10 10 12 9 18 -4 31 -15 16
-16 15 -15 -13z m28 -48 c0 -3 -4 -8 -10 -11 -5 -3 -10 -1 -10 4 0 6 5 11 10
11 6 0 10 -2 10 -4z"/>
<path d="M6465 4610 c-3 -5 -1 -10 4 -10 6 0 11 5 11 10 0 6 -2 10 -4 10 -3 0
-8 -4 -11 -10z"/>
<path d="M6385 4540 c-3 -5 -1 -10 4 -10 6 0 11 5 11 10 0 6 -2 10 -4 10 -3 0
-8 -4 -11 -10z"/>
<path d="M3622 4076 c-59 -19 -107 -58 -139 -114 -37 -62 -38 -154 -4 -224 59
-123 204 -183 309 -129 44 23 113 93 136 139 57 113 12 258 -97 314 -52 26
-147 33 -205 14z m-75 -94 c-30 -30 -47 -41 -47 -31 0 22 38 69 64 79 36 13
32 1 -17 -48z m239 -55 c1 -1 3 -40 5 -87 l4 -85 -75 -6 c-41 -3 -81 -3 -87
-1 -9 3 -13 31 -13 92 0 76 3 89 18 94 15 4 143 -2 148 -7z"/>
<path d="M5807 4083 c-11 -3 -16 -11 -13 -19 3 -9 -21 -33 -69 -69 -41 -30
-75 -60 -75 -65 0 -6 -7 -10 -15 -10 -27 0 -38 -49 -25 -115 19 -95 66 -156
150 -194 59 -27 98 -26 163 3 106 47 149 107 163 232 7 60 -18 128 -63 170
-59 55 -151 84 -216 67z"/>
<path d="M4626 3962 c-5 -16 -15 -22 -37 -22 -29 0 -29 0 -29 -62 0 -68 -29
-143 -58 -152 -16 -5 -147 -25 -166 -26 -5 0 -6 -3 -3 -6 3 -4 -5 -16 -19 -27
l-25 -19 30 -19 c24 -14 37 -16 63 -8 42 12 41 12 34 -6 -7 -19 16 -19 82 0
67 20 105 53 138 122 33 67 39 169 13 217 -16 29 -17 29 -23 8z"/>
<path d="M6491 3874 c0 -11 3 -14 6 -6 3 7 2 16 -1 19 -3 4 -6 -2 -5 -13z"/>
<path d="M5803 7420 c-10 -11 -20 -32 -23 -47 -3 -17 -20 -37 -45 -54 -52 -36
-52 -53 3 -57 42 -3 42 -4 42 -41 0 -49 21 -68 55 -53 14 6 27 23 31 39 9 39
20 50 54 56 16 4 37 18 46 33 17 25 17 27 -1 40 -10 8 -33 14 -51 14 -29 0
-33 4 -46 42 -15 49 -39 59 -65 28z"/>
<path d="M4362 7407 c-12 -6 -25 -21 -28 -34 -4 -13 -14 -23 -24 -23 -21 0
-70 -44 -70 -63 0 -23 23 -37 61 -37 36 0 38 -1 41 -37 3 -33 7 -38 30 -41 28
-3 58 27 58 59 0 10 13 20 33 25 24 7 33 16 35 36 3 22 -2 27 -27 33 -23 5
-33 15 -41 41 -14 41 -37 55 -68 41z"/>
<path d="M8020 7396 c-17 -22 -8 -56 20 -78 30 -22 53 -16 68 17 12 26 6 55
-12 67 -18 13 -63 9 -76 -6z"/>
<path d="M2185 7373 c-10 -16 -24 -32 -32 -36 -23 -14 -14 -42 25 -80 35 -34
39 -36 58 -22 12 8 27 28 34 45 12 29 11 33 -13 55 -14 14 -28 34 -32 45 -9
27 -19 25 -40 -7z"/>
<path d="M3289 7302 l-30 -27 34 -39 34 -40 30 22 c42 30 48 58 18 88 -31 31
-48 30 -86 -4z"/>
<path d="M8262 7260 c-261 -70 -432 -296 -432 -569 1 -194 99 -366 274 -480
91 -60 164 -83 277 -89 172 -8 310 37 426 143 115 104 190 255 200 405 16 241
-154 485 -406 578 -93 35 -238 40 -339 12z m227 -115 c67 -9 180 -66 228 -116
38 -40 43 -52 58 -134 40 -222 39 -208 10 -300 -25 -77 -75 -165 -95 -165 -21
0 -18 23 15 92 80 169 65 288 -50 404 -100 100 -256 128 -386 67 -129 -60
-194 -159 -193 -298 0 -68 4 -88 28 -133 59 -116 137 -171 268 -192 85 -13
148 0 219 45 57 36 79 36 56 2 -21 -32 -82 -63 -147 -76 -57 -11 -57 -12 -66
-54 l-10 -42 -63 2 c-93 4 -191 54 -289 147 -83 79 -128 206 -119 343 4 70 11
94 46 166 59 123 143 192 281 231 87 24 104 25 209 11z m22 -267 c80 -42 113
-97 112 -187 -1 -124 -85 -200 -219 -201 -85 0 -139 29 -181 100 -85 141 14
318 179 320 33 0 64 -9 109 -32z"/>
<path d="M8339 6771 c-59 -60 -27 -161 56 -177 39 -7 64 0 99 27 21 16 26 29
26 62 -1 48 -12 66 -60 96 -49 29 -86 27 -121 -8z"/>
<path d="M1625 7263 c-220 -28 -431 -203 -495 -412 -27 -86 -27 -226 0 -312
51 -166 193 -315 362 -381 68 -27 236 -36 317 -18 138 31 273 129 358 262 100
158 109 385 20 552 -45 86 -164 203 -252 248 -93 47 -221 72 -310 61z m230
-154 c52 -20 91 -40 93 -49 1 -8 -26 -45 -60 -82 l-63 -68 -53 20 c-72 27
-128 26 -187 -6 -46 -24 -49 -24 -59 -7 -5 10 -36 46 -69 80 l-59 61 24 16
c12 8 41 23 63 32 129 54 231 55 370 3z m-491 -143 c9 -21 35 -50 65 -71 28
-20 51 -41 51 -46 0 -5 -11 -26 -24 -47 -45 -68 -42 -139 8 -252 4 -10 -1 -19
-16 -25 -12 -6 -42 -36 -66 -68 -52 -68 -55 -67 -105 36 -67 137 -72 264 -15
389 22 46 72 118 84 118 2 0 10 -16 18 -34z m722 -92 c13 -28 27 -71 30 -95
l6 -44 -56 3 c-53 4 -56 2 -66 -23 -13 -35 -13 -41 7 -60 17 -18 75 -14 100 7
44 36 9 -122 -43 -199 -34 -50 -54 -66 -54 -44 0 6 -26 37 -57 71 l-56 61 16
47 c24 65 22 158 -3 207 -11 22 -20 43 -20 47 0 4 19 20 43 37 23 16 53 41 67
54 l25 25 19 -21 c10 -12 29 -45 42 -73z m-432 -81 c12 -30 -23 -60 -39 -33
-4 6 -16 6 -33 -1 -27 -9 -27 -9 5 19 34 31 59 37 67 15z m44 -85 c2 -20 -2
-28 -18 -33 -29 -9 -33 -2 -25 35 9 39 39 38 43 -2z m-15 -258 c52 0 88 5 109
16 l30 16 58 -61 c32 -34 63 -61 69 -61 6 0 11 -7 11 -16 0 -20 -129 -79 -210
-96 -101 -20 -245 15 -330 83 l-25 20 24 17 c14 9 45 37 70 62 45 45 47 45 81
33 19 -7 70 -12 113 -13z"/>
<path d="M1644 7094 c-13 -19 -15 -32 -8 -52 8 -23 15 -27 49 -27 37 0 40 2
43 29 2 19 -4 36 -19 52 -29 31 -44 30 -65 -2z"/>
<path d="M1276 6724 c-3 -9 -6 -29 -6 -45 0 -32 24 -43 76 -37 25 3 29 8 32
36 2 18 -2 40 -9 48 -16 20 -85 19 -93 -2z"/>
<path d="M1642 6378 c-30 -30 -2 -108 39 -108 26 0 59 30 59 54 0 48 -67 85
-98 54z"/>
<path d="M2368 7100 c-20 -11 -47 -34 -60 -52 -20 -28 -23 -44 -22 -113 0 -44
8 -109 18 -145 30 -115 99 -325 113 -341 8 -9 13 -41 13 -81 l0 -65 -61 -23
c-146 -53 -217 -207 -152 -333 38 -74 131 -146 191 -147 21 0 22 -3 24 -105 0
-58 1 -111 2 -117 1 -8 -16 -15 -39 -18 -22 -3 -46 -9 -52 -13 -10 -6 -13 -67
-13 -249 0 -224 2 -245 21 -285 23 -48 68 -90 107 -100 54 -13 128 52 152 136
14 47 24 393 13 451 -8 42 -10 45 -51 53 l-42 8 0 122 1 122 52 25 c62 30 109
88 133 163 15 50 15 57 0 109 -22 77 -70 137 -133 168 l-52 25 0 73 c-1 55 2
72 13 72 8 0 27 31 44 73 17 39 47 113 67 162 52 125 65 178 65 268 0 90 -15
128 -63 157 -46 29 -235 28 -289 0z m260 -74 c13 -13 17 -35 16 -99 0 -84 1
-81 -96 -329 -6 -16 -14 -28 -18 -28 -5 0 -10 72 -12 160 -2 110 -7 163 -15
172 -28 27 -37 -9 -41 -164 -2 -84 -7 -159 -11 -166 -14 -26 -91 280 -90 358
0 19 5 51 12 70 10 30 18 36 52 42 71 11 185 3 203 -16z m-91 -870 l18 -21
-22 19 c-13 11 -23 14 -23 8 0 -6 -23 -12 -52 -14 -40 -2 -54 -7 -56 -20 -2
-12 11 -21 48 -33 28 -9 54 -23 56 -30 8 -20 -14 -55 -41 -65 -18 -7 -23 -16
-23 -40 1 -38 -16 -52 -51 -38 -39 14 -59 36 -77 83 -13 35 -14 50 -5 77 14
41 65 92 106 105 39 12 98 -2 122 -31z m-29 -881 c3 -171 -5 -225 -34 -225
-24 0 -34 72 -34 238 l0 163 33 -3 32 -3 3 -170z"/>
<path d="M7564 7063 c-11 -50 -13 -53 -47 -53 -40 0 -57 -15 -57 -51 0 -30 15
-39 66 -39 33 0 34 -1 34 -40 0 -43 18 -60 64 -60 28 0 46 25 46 64 0 23 4 26
34 26 43 0 58 19 54 67 -3 37 -4 38 -45 41 -34 3 -43 7 -43 22 0 40 -11 50
-56 50 -39 0 -44 -3 -50 -27z"/>
<path d="M7616 6699 c-33 -39 -33 -62 0 -84 28 -18 75 -13 94 10 21 25 -28
105 -63 105 -3 0 -17 -14 -31 -31z"/>
<path d="M7635 6530 c-14 -31 -16 -48 -9 -68 11 -33 48 -41 75 -16 33 30 24
64 -27 107 -20 17 -21 16 -39 -23z"/>
<path d="M7635 6199 c-25 -24 -53 -56 -62 -73 -31 -61 4 -143 85 -200 53 -36
82 -33 147 16 58 43 95 98 95 141 0 60 -96 146 -173 154 -42 5 -48 3 -92 -38z
m129 -84 c32 -48 12 -85 -46 -85 -54 0 -63 46 -17 84 38 32 43 32 63 1z"/>
<path d="M8941 6214 c-12 -15 -21 -33 -21 -40 0 -8 -11 -16 -25 -20 -56 -14
-55 -76 1 -100 19 -8 34 -20 34 -28 0 -20 36 -48 56 -44 22 4 82 80 90 115 5
19 0 32 -23 56 -16 18 -37 44 -46 60 -22 34 -40 34 -66 1z"/>
<path d="M1152 6212 c-12 -12 -22 -28 -22 -35 0 -7 -13 -18 -30 -24 -40 -15
-49 -41 -23 -62 12 -9 28 -31 37 -49 10 -18 23 -35 31 -38 18 -7 55 13 55 31
0 7 14 23 30 35 17 12 30 30 30 40 0 11 -13 29 -30 42 -16 12 -30 27 -30 33 0
6 -6 19 -13 30 -13 17 -15 17 -35 -3z"/>
<path d="M8295 6004 c-183 -28 -362 -149 -431 -290 -27 -55 -29 -67 -29 -184
0 -104 3 -132 19 -164 30 -59 114 -139 164 -155 50 -17 51 -23 21 -129 -21
-77 -20 -102 6 -102 8 0 57 21 108 47 l92 47 165 1 c195 1 231 10 387 92 150
78 158 85 195 161 31 63 33 74 33 172 0 94 -3 111 -27 163 -54 115 -234 269
-369 317 -49 17 -92 23 -184 25 -66 2 -133 1 -150 -1z m255 -126 c82 -20 145
-54 208 -113 112 -103 155 -192 110 -227 -8 -7 -18 -25 -22 -39 -7 -32 -72
-79 -109 -79 -33 0 -60 26 -88 84 -11 25 -27 50 -35 57 -8 6 -14 17 -14 24 0
22 -40 31 -166 35 -45 2 -70 -3 -99 -19 -22 -12 -45 -21 -52 -21 -7 0 -13 -4
-13 -9 0 -4 -18 -21 -40 -36 -24 -16 -40 -36 -40 -47 0 -26 40 -57 110 -86 47
-20 66 -22 130 -17 41 3 90 8 108 11 27 5 32 3 32 -14 0 -11 -7 -25 -15 -32
-9 -7 -14 -19 -11 -26 6 -16 -16 -34 -46 -38 -34 -4 -98 -26 -98 -35 0 -9 -61
-31 -87 -31 -11 0 -41 -11 -67 -25 -26 -14 -49 -25 -51 -25 -3 0 -3 30 -2 68
2 65 1 67 -23 70 -123 13 -154 30 -195 113 -32 63 -34 155 -4 234 40 107 158
195 299 224 30 6 64 13 75 15 28 7 152 -3 205 -16z m-76 -334 c9 -3 16 -17 16
-30 0 -52 -77 -87 -100 -45 -11 22 -13 64 -3 74 8 9 66 9 87 1z"/>
<path d="M1991 5900 c-78 -18 -127 -123 -87 -185 16 -25 16 -26 -15 -53 -65
-55 -66 -55 -98 -31 l-29 21 24 35 c17 25 24 50 24 81 0 38 -5 49 -34 77 -60
56 -145 55 -207 -5 -32 -31 -39 -44 -39 -76 0 -21 7 -52 15 -68 15 -27 14 -29
-22 -65 l-37 -36 -38 37 c-38 35 -39 37 -25 65 26 51 30 89 11 129 -23 49 -67
74 -129 74 -62 0 -106 -25 -128 -73 -21 -44 -21 -73 -1 -112 9 -18 11 -31 5
-33 -32 -11 -78 -53 -98 -91 -21 -41 -23 -56 -23 -202 0 -155 0 -158 26 -188
14 -17 32 -31 40 -31 11 0 14 -20 14 -95 0 -83 3 -98 21 -116 14 -14 30 -19
52 -17 l32 3 3 263 c1 144 -2 262 -6 262 -19 0 -41 -38 -47 -80 -12 -88 -14
-93 -32 -79 -13 11 -15 30 -11 109 7 150 32 180 148 180 49 0 64 -4 90 -27 49
-40 99 -165 100 -246 0 -22 -4 -28 -17 -25 -21 4 -31 36 -32 111 -1 56 -1 57
-30 57 -17 0 -33 -6 -38 -12 -8 -14 -5 -461 3 -490 4 -15 19 -17 106 -17 l100
0 -5 252 c-3 139 -10 269 -15 291 -13 46 -8 60 26 82 32 21 97 22 137 3 l30
-14 0 -302 c0 -201 4 -305 11 -313 7 -7 40 -8 96 -4 l86 7 6 166 c3 91 9 205
12 252 5 74 4 87 -10 92 -26 10 -54 -26 -61 -80 -9 -68 -12 -73 -36 -73 -20 0
-21 3 -14 58 7 63 51 168 84 201 18 18 33 21 97 21 70 0 78 -2 105 -29 21 -21
29 -39 29 -64 0 -34 -1 -35 -34 -30 l-34 4 -6 -53 c-10 -103 -14 -435 -4 -451
12 -22 81 -23 98 -2 7 8 15 56 18 108 4 83 8 95 33 124 37 43 43 80 37 232 -6
146 -25 198 -84 233 -18 11 -34 21 -34 22 0 1 9 20 20 41 53 103 -50 203 -179
175z m-286 -105 c14 -13 25 -31 25 -40 0 -17 -43 -65 -58 -65 -5 0 -22 10 -37
21 -22 18 -26 27 -21 52 12 61 49 74 91 32z m373 -13 c5 -45 -21 -82 -56 -82
-38 0 -52 17 -52 60 0 47 16 62 65 58 37 -3 40 -5 43 -36z m-747 18 c21 -12
26 -59 9 -91 -13 -24 -52 -25 -72 -1 -54 60 -7 129 63 92z m173 -674 c6 -56
-1 -116 -14 -116 -11 0 -22 114 -14 144 10 41 21 30 28 -28z"/>
<path d="M7660 5655 c-21 -25 -24 -92 -6 -120 22 -34 63 -34 76 1 13 33 13 90
0 115 -13 22 -52 25 -70 4z"/>
<path d="M7664 5271 c-23 -10 -44 -26 -47 -36 -12 -31 -7 -92 8 -105 19 -16
26 -10 27 21 2 37 27 59 67 59 29 0 41 -7 65 -36 36 -46 52 -33 31 27 -18 49
-57 89 -89 89 -12 0 -39 -9 -62 -19z"/>
<path d="M2022 5173 c-13 -26 -23 -175 -13 -191 10 -17 17 18 27 131 7 77 3
93 -14 60z"/>
<path d="M1310 5076 c-12 -83 -8 -118 12 -98 5 5 11 48 15 95 8 115 -11 116
-27 3z"/>
<path d="M8930 5073 c-29 -37 -24 -89 11 -115 24 -18 29 -18 62 -5 51 22 70
55 56 96 -20 58 -92 71 -129 24z"/>
<path d="M7836 4860 c-59 -18 -120 -73 -155 -137 -24 -46 -31 -133 -37 -457
-6 -322 -5 -334 14 -373 40 -77 44 -78 327 -78 138 -1 415 2 617 5 l366 5 27
25 c56 52 60 69 60 270 1 102 5 215 9 251 9 70 -8 191 -45 321 -16 55 -27 73
-63 105 -77 67 -68 66 -606 69 -267 2 -498 -1 -514 -6z m324 -104 c0 -7 -7
-33 -16 -57 -20 -57 -55 -218 -63 -293 -6 -53 -11 -62 -54 -103 -56 -53 -59
-52 -166 22 -81 55 -98 86 -66 119 10 9 12 16 5 16 -6 0 9 24 33 53 77 90 117
158 117 199 0 34 3 38 33 42 111 19 177 19 177 2z m275 -33 c4 -27 17 -95 30
-152 13 -58 22 -108 19 -113 -3 -4 -33 -8 -68 -8 -56 0 -64 -3 -75 -24 -19
-34 -18 -92 2 -114 23 -25 21 -32 -6 -32 -15 0 -42 18 -71 48 -41 41 -46 51
-41 77 3 17 10 59 16 95 5 36 18 108 27 160 l17 95 60 6 c33 3 65 6 72 7 7 1
14 -18 18 -45z m281 30 c15 -51 81 -174 120 -224 24 -32 44 -60 44 -63 0 -2
-14 -6 -32 -8 -27 -3 -33 -8 -39 -35 -3 -18 -12 -39 -18 -47 -12 -14 -5 -46
13 -59 14 -10 -38 -57 -64 -57 -22 0 -78 62 -84 93 -3 12 -7 47 -9 77 -3 30
-24 110 -46 177 -23 66 -41 128 -41 137 0 12 14 16 63 19 34 2 68 4 75 5 7 1
15 -6 18 -15z m180 -26 c53 -53 74 -118 33 -102 -14 5 -99 123 -99 138 0 18
26 4 66 -36z m-1056 -14 c0 -34 -88 -163 -112 -163 -29 0 23 136 63 164 30 21
49 20 49 -1z m34 -524 l46 -41 0 -76 c0 -43 -3 -94 -6 -114 l-7 -38 -77 0
c-62 0 -79 3 -84 16 -6 16 1 214 10 291 l5 42 34 -20 c18 -11 54 -38 79 -60z
m355 22 l61 -59 0 -78 c0 -44 -3 -96 -6 -116 l-7 -38 -124 0 -125 0 4 110 3
109 65 66 c35 36 65 65 66 65 1 0 29 -27 63 -59z m382 -3 l69 -63 -2 -110 -3
-110 -131 -3 -131 -3 -7 32 c-3 17 -6 69 -6 114 l0 83 48 38 c26 21 55 49 65
61 10 13 21 23 23 23 3 0 37 -28 75 -62z m329 -117 l0 -159 -69 -7 c-39 -4
-75 -4 -80 0 -7 3 -11 44 -11 99 l0 93 69 66 c38 37 74 67 80 67 8 0 11 -50
11 -159z"/>
<path d="M1238 4800 c-45 -8 -82 -32 -105 -67 -16 -23 -17 -64 -18 -407 0
-423 -1 -414 67 -456 29 -18 57 -19 490 -18 452 1 460 1 491 22 17 12 37 33
44 46 17 34 19 761 2 793 -21 41 -62 77 -93 81 -54 8 -839 14 -878 6z m695
-88 c123 -6 160 -10 168 -22 6 -10 8 -111 5 -280 -3 -146 -5 -303 -6 -350 l0
-85 -100 -1 c-73 -1 -100 2 -104 12 -3 7 -6 133 -7 280 l-2 267 -31 34 c-43
46 -132 68 -213 54 -31 -6 -80 -11 -109 -11 l-52 0 -22 -54 c-12 -30 -21 -65
-20 -78 1 -13 2 -130 1 -260 l-1 -238 -110 0 -110 0 0 350 0 350 23 10 c46 21
429 33 690 22z m-259 -167 c12 -13 14 -40 10 -162 -3 -81 -10 -153 -15 -160
-6 -6 -25 -13 -42 -15 -22 -2 -7 -7 51 -17 l82 -15 0 -45 c0 -25 3 -70 7 -99
l6 -53 -101 3 c-92 2 -101 4 -106 23 -7 26 3 535 10 546 9 15 82 10 98 -6z"/>
<path d="M2439 4728 c-7 -13 -15 -36 -18 -52 -5 -21 -15 -32 -36 -39 -45 -14
-55 -26 -55 -62 0 -36 21 -60 62 -70 22 -6 30 -16 38 -46 23 -85 97 -69 112
25 2 14 16 23 48 30 81 20 92 97 16 117 -22 6 -47 13 -53 15 -7 2 -13 19 -13
38 0 42 -22 66 -60 66 -20 0 -33 -7 -41 -22z"/>
<path d="M2410 4247 c-53 -17 -114 -85 -128 -139 -18 -70 -15 -97 17 -164 39
-82 75 -107 162 -112 58 -4 74 -1 116 22 52 29 93 79 112 139 26 78 -29 196
-110 237 -49 26 -122 33 -169 17z m136 -131 c38 -38 44 -77 19 -126 -19 -37
-44 -51 -97 -53 -33 -1 -45 4 -64 26 -46 54 -43 111 8 159 43 40 89 39 134 -6z"/>
<path d="M2133 3740 c-22 -13 -35 -31 -43 -60 l-11 -40 -142 0 -143 0 -13 35
c-20 55 -53 75 -127 75 -53 0 -67 -4 -93 -26 -22 -18 -31 -35 -31 -55 l0 -29
-68 0 c-60 0 -74 -4 -116 -31 -83 -55 -81 -47 -78 -434 2 -253 7 -353 17 -390
17 -60 68 -114 140 -147 50 -23 51 -23 515 -23 l465 0 57 28 c64 31 112 88
129 152 16 57 6 677 -11 727 -7 20 -33 56 -56 79 -43 43 -44 43 -113 42 -69
-1 -70 -1 -76 28 -4 15 -22 42 -41 59 -28 24 -44 30 -82 30 -29 0 -59 -8 -79
-20z m-457 -92 c4 -6 7 -46 5 -87 -2 -79 -16 -109 -45 -98 -13 5 -16 24 -16
95 0 49 3 92 7 95 10 11 41 8 49 -5z m562 -73 c2 -89 -3 -103 -38 -107 -24 -3
-25 0 -28 62 -2 36 0 80 3 98 5 29 10 33 33 30 27 -3 27 -4 30 -83z m-718 -91
c0 -42 2 -46 47 -74 68 -43 130 -42 179 3 26 24 37 43 41 74 l5 42 142 -2 141
-2 -3 -30 c-6 -62 64 -115 152 -115 58 0 100 38 117 105 l12 47 46 -6 c25 -3
49 -10 54 -15 14 -14 -1 -31 -26 -31 -24 0 -97 -45 -97 -60 0 -4 -15 -18 -34
-29 -32 -20 -49 -21 -377 -24 -189 -2 -387 -1 -439 2 l-95 6 1 58 c1 39 7 64
17 75 15 15 93 33 110 25 4 -3 7 -24 7 -49z m934 -230 c14 -5 16 -34 16 -223
0 -239 -1 -241 -64 -280 -34 -21 -41 -22 -489 -19 l-455 3 -27 25 c-50 46 -55
73 -55 289 l0 200 73 4 c133 6 985 7 1001 1z"/>
<path d="M1775 3419 c-4 -6 -5 -12 -2 -15 2 -3 7 2 10 11 7 17 1 20 -8 4z"/>
<path d="M1540 3150 l0 -40 50 0 c28 0 53 -1 58 -2 4 -2 8 16 10 40 l3 42 -60
0 -61 0 0 -40z"/>
<path d="M1770 3144 l0 -46 48 7 c57 8 62 11 62 35 0 41 -11 50 -61 50 l-49 0
0 -46z"/>
<path d="M2237 3173 c-4 -3 -7 -19 -7 -35 0 -26 3 -28 40 -28 43 0 46 4 30 44
-9 25 -46 36 -63 19z"/>
<path d="M1788 3033 c-26 -4 -28 -8 -28 -49 l0 -44 65 0 65 0 0 50 0 50 -37
-1 c-21 -1 -50 -4 -65 -6z"/>
<path d="M1550 2989 l0 -40 53 3 52 3 3 38 3 37 -55 0 -56 0 0 -41z"/>
<path d="M1990 3011 c-5 -11 -10 -29 -10 -41 0 -19 5 -21 48 -18 45 3 47 5 50
34 3 26 -1 33 -20 38 -39 10 -57 7 -68 -13z"/>
<path d="M2210 2990 l0 -40 45 0 45 0 0 40 0 40 -45 0 -45 0 0 -40z"/>
<path d="M1540 2837 c0 -40 11 -47 75 -47 38 0 44 3 49 26 9 36 -1 44 -68 51
l-56 6 0 -36z"/>
<path d="M2250 2863 c-14 -3 -29 -9 -34 -13 -16 -16 15 -40 51 -40 31 0 34 2
31 27 -3 29 -10 32 -48 26z"/>
<path d="M1785 2849 c-4 -6 -5 -12 -4 -13 32 -24 58 -36 76 -36 19 0 23 5 23
30 0 29 -2 30 -44 30 -25 0 -48 -5 -51 -11z"/>
<path d="M2000 2838 c0 -24 15 -35 48 -36 27 -1 32 3 32 24 0 21 -4 24 -40 24
-25 0 -40 -5 -40 -12z"/>
<path d="M8483 3720 c-25 -11 -48 -30 -55 -45 -10 -22 -16 -25 -37 -20 -50 13
-519 17 -555 5 -45 -15 -122 -97 -135 -146 -13 -46 -14 -472 -2 -621 8 -92 12
-109 42 -154 18 -28 50 -63 72 -77 l41 -27 425 0 426 0 48 28 c26 15 60 47 75
69 27 41 27 42 30 252 4 259 2 273 -44 292 -47 20 -48 57 -1 70 64 19 73 101
15 149 -27 23 -29 29 -20 48 21 41 19 89 -5 112 -12 13 -30 16 -73 13 -54 -3
-58 -1 -92 35 -29 30 -42 37 -74 37 -22 0 -58 -9 -81 -20z m87 -104 c8 -15 35
-38 60 -50 70 -35 89 -97 34 -110 -16 -4 -24 -14 -25 -29 -1 -20 -1 -20 -8 4
-15 49 -31 67 -67 79 -46 15 -77 1 -99 -46 -28 -60 14 -114 92 -114 32 0 46 5
58 23 15 21 15 21 9 -13 -4 -19 -12 -38 -18 -42 -17 -12 18 -10 51 3 27 10 27
9 11 -7 -20 -20 -96 -43 -146 -44 -41 0 -104 31 -130 65 -37 47 -45 88 -28
140 9 25 16 52 16 60 0 8 17 19 43 25 23 6 50 14 60 17 11 3 25 21 33 40 17
39 31 39 54 -1z m-419 -66 c120 0 129 -1 129 -19 0 -10 -13 -33 -30 -51 -16
-18 -30 -42 -30 -54 0 -23 32 -58 63 -69 20 -7 22 -44 4 -69 -11 -14 -40 -17
-200 -20 -201 -3 -207 -5 -207 -56 0 -15 8 -26 26 -32 34 -13 475 -13 510 0
32 13 47 2 75 -52 l19 -38 -25 -6 c-15 -4 -25 -13 -25 -24 0 -25 4 -27 87 -35
67 -6 71 -6 78 15 4 11 2 26 -3 33 -7 8 -4 27 7 57 18 50 43 60 95 40 l27 -10
-3 -175 -3 -175 -28 -27 -27 -28 -409 -3 -408 -4 -26 32 -27 32 -2 231 c-5
451 -5 463 16 485 22 25 53 31 130 26 32 -2 117 -4 187 -4z"/>
<path d="M7953 3433 c-7 -2 -13 -18 -13 -34 l0 -30 103 3 c101 3 102 3 102 28
0 19 -6 26 -30 31 -36 8 -145 9 -162 2z"/>
<path d="M7938 3075 c-3 -3 -3 -17 0 -31 4 -24 6 -25 86 -22 80 3 81 3 84 31
l3 27 -84 0 c-46 0 -86 -2 -89 -5z"/>
<path d="M8162 3053 c3 -26 7 -28 53 -31 28 -1 77 1 110 5 52 7 60 11 63 31 3
22 2 22 -113 22 l-116 0 3 -27z"/>
<path d="M7940 2890 l0 -41 83 3 82 3 3 38 3 37 -85 0 -86 0 0 -40z"/>
<path d="M8170 2896 c0 -19 5 -38 11 -42 18 -10 182 -4 196 8 7 6 13 21 13 33
0 29 -21 35 -132 35 l-88 0 0 -34z"/>
<path d="M8473 2923 c-7 -2 -13 -15 -13 -28 0 -12 6 -27 13 -33 19 -15 88 -23
122 -14 36 10 47 49 19 69 -17 12 -115 17 -141 6z"/>
<path d="M5647 3084 c-3 -3 -651 -5 -1440 -4 -967 0 -1444 -3 -1462 -10 -26
-10 -27 -13 -21 -52 4 -23 15 -61 26 -85 46 -104 204 -208 337 -222 91 -10
4109 -6 4153 4 61 13 190 84 235 130 54 54 84 112 92 175 4 37 2 51 -8 54 -19
6 -1906 16 -1912 10z m-1222 -149 c0 -12 -1342 -20 -1435 -9 l-65 8 60 7 c101
10 1440 5 1440 -6z m1483 4 c-12 -7 -24 -7 -35 0 -15 9 -12 10 17 10 29 0 32
-1 18 -10z m110 -6 c-10 -2 -26 -2 -35 0 -10 3 -2 5 17 5 19 0 27 -2 18 -5z
m515 0 c-67 -2 -179 -2 -250 0 -70 1 -15 3 122 3 138 0 195 -2 128 -3z m190 0
c-13 -2 -33 -2 -45 0 -13 2 -3 4 22 4 25 0 35 -2 23 -4z"/>
<path d="M7702 2608 c-5 -7 -13 -23 -16 -36 -4 -12 -23 -34 -42 -48 -48 -37
-42 -84 12 -84 19 0 23 -6 26 -37 3 -35 6 -38 33 -38 25 0 31 5 39 34 7 24 19
37 43 47 49 21 45 51 -13 92 -19 13 -34 34 -37 52 -7 31 -27 39 -45 18z"/>
<path d="M2574 2518 l-51 -53 62 -62 c34 -33 66 -58 72 -55 6 4 19 25 29 47
12 26 27 41 41 43 35 5 41 62 7 62 -8 0 -30 16 -50 35 -19 19 -40 35 -47 35
-7 0 -35 -24 -63 -52z"/>
<path d="M3878 2553 c-9 -10 -17 -24 -20 -32 -2 -7 -19 -19 -37 -25 -68 -22
-63 -76 6 -76 30 0 34 -3 28 -20 -8 -24 18 -70 40 -70 21 0 45 29 45 56 0 20
5 24 29 24 44 0 61 10 61 35 0 27 -16 42 -50 47 -16 2 -30 14 -39 33 -22 47
-39 55 -63 28z"/>
<path d="M3150 2545 c-270 -75 -450 -318 -426 -575 27 -290 263 -510 547 -510
91 0 157 17 240 61 78 42 203 163 247 240 81 142 82 327 4 488 -32 65 -135
178 -200 220 -118 75 -295 108 -412 76z m184 -110 c36 -9 78 -20 93 -26 40
-14 104 -60 98 -69 -3 -4 2 -11 11 -14 15 -6 15 -8 -2 -27 -16 -17 -16 -22 -4
-29 8 -6 11 -10 6 -10 -5 0 -33 16 -63 36 -29 19 -77 46 -107 59 -52 23 -54
23 -59 4 -8 -29 -35 -34 -61 -10 -22 21 -24 21 -72 4 -109 -37 -195 -120 -232
-224 -27 -78 -27 -84 -2 -109 22 -22 17 -48 -12 -59 -18 -6 -16 -13 24 -91 47
-92 93 -137 195 -185 67 -32 108 -33 117 -2 9 34 26 2 26 -52 l0 -44 -57 6
c-142 13 -252 76 -321 184 -64 102 -82 265 -42 384 26 76 41 101 99 162 68 72
150 107 293 126 4 1 36 -6 72 -14z m-190 -295 c17 -10 51 -39 75 -65 24 -25
47 -45 52 -45 4 0 42 29 84 65 79 67 93 73 113 53 27 -27 13 -46 -125 -155
l-83 -64 -90 92 c-49 52 -90 98 -90 104 0 11 20 35 28 35 3 0 19 -9 36 -20z
m504 -140 c11 -18 10 -20 -18 -20 -32 0 -37 9 -18 28 16 16 21 15 36 -8z
m-358 -265 c0 -28 -24 -34 -34 -9 -8 20 1 34 20 34 8 0 14 -10 14 -25z"/>
<path d="M6160 2531 c-91 -34 -95 -36 -290 -105 -85 -30 -189 -70 -230 -89
-41 -19 -120 -49 -175 -66 -142 -46 -165 -57 -165 -81 0 -30 45 -37 100 -16
83 32 343 127 505 185 245 88 378 140 400 157 20 15 20 15 1 30 -28 20 -61 17
-146 -15z"/>
<path d="M6945 2536 c-119 -39 -199 -91 -271 -177 -128 -154 -153 -394 -59
-580 77 -150 239 -274 403 -305 261 -50 537 118 621 377 79 246 -33 525 -260
644 -90 47 -166 65 -274 65 -66 -1 -109 -7 -160 -24z m307 -116 c213 -66 338
-313 268 -531 -41 -126 -139 -229 -262 -276 -62 -24 -227 -24 -295 0 -76 27
-156 88 -201 157 -60 89 -77 147 -77 266 0 99 1 102 43 187 35 71 53 94 95
127 127 95 272 119 429 70z"/>
<path d="M6971 2285 c-56 -25 -118 -82 -141 -131 -19 -39 -22 -57 -18 -127 7
-131 57 -203 190 -273 83 -43 118 -46 203 -14 158 59 249 259 182 402 -28 61
-78 115 -125 135 -50 21 -249 26 -291 8z m103 -165 l30 -40 37 36 c43 42 72
43 77 2 2 -19 -12 -45 -53 -100 -32 -40 -64 -77 -72 -81 -20 -12 -57 15 -73
52 -10 26 -17 30 -44 28 -29 -2 -31 0 -34 37 -4 46 13 93 36 99 48 13 67 6 96
-33z"/>
<path d="M5165 2520 c-3 -11 -3 -248 0 -527 6 -444 8 -510 22 -525 15 -17 57
-18 624 -18 539 0 609 2 623 16 9 8 16 23 16 32 0 9 0 242 1 517 0 275 0 506
0 513 -1 9 -14 12 -43 10 l-43 -3 -3 -106 -3 -106 -124 -10 c-74 -5 -130 -14
-138 -22 -8 -8 -11 -42 -9 -110 l3 -98 -117 -7 c-136 -9 -161 -16 -174 -52 -9
-22 -13 -24 -25 -14 -16 14 -274 9 -307 -5 -23 -9 -28 -39 -36 -255 l-7 -185
-66 -3 -67 -3 -6 158 c-3 87 -9 300 -12 473 -4 173 -11 323 -16 333 -13 26
-84 24 -93 -3z m1095 -323 c-32 -16 -36 -39 -14 -85 27 -57 25 -257 -3 -337
-12 -33 -25 -78 -29 -100 l-7 -40 -8 35 c-5 19 -11 149 -15 288 l-7 252 54 0
c50 0 52 -1 29 -13z m-236 -425 c-1 -106 -4 -195 -6 -197 -2 -2 -31 -6 -66
-10 l-62 -6 0 206 0 206 68 -3 67 -3 -1 -193z m-334 -34 l-5 -173 -52 -3 -51
-3 -6 63 c-3 35 -7 114 -9 176 l-2 112 65 0 65 0 -5 -172z"/>
<path d="M4365 2496 c-161 -52 -265 -138 -335 -276 -74 -145 -65 -343 21 -486
41 -68 136 -159 205 -196 151 -81 367 -77 504 10 57 36 142 122 185 187 123
184 98 446 -58 614 -50 52 -173 129 -244 151 -88 27 -188 26 -278 -4z m241
-121 c66 -20 178 -105 210 -161 70 -120 83 -267 32 -377 -34 -73 -110 -147
-191 -187 -56 -27 -74 -31 -153 -32 -99 -1 -142 13 -227 74 -145 105 -202 317
-127 473 45 93 154 186 249 211 63 17 148 17 207 -1z"/>
<path d="M4473 2240 c-13 -5 -28 -23 -35 -39 -7 -17 -40 -52 -73 -79 -87 -69
-92 -85 -55 -163 16 -35 30 -70 30 -77 0 -14 39 -32 56 -25 5 2 26 -14 46 -37
53 -59 97 -50 137 27 6 12 21 23 33 25 12 2 33 19 45 38 33 49 49 67 63 72 9
3 7 14 -8 43 -27 53 -63 86 -103 94 -30 6 -36 14 -57 69 -25 64 -34 70 -79 52z
m52 -195 c14 -13 25 -31 25 -39 0 -23 -51 -57 -79 -54 -23 3 -26 8 -29 46 -5
72 36 95 83 47z"/>
<path d="M8233 2498 c-4 -7 -10 -39 -14 -72 -6 -52 -12 -64 -53 -105 -37 -37
-46 -54 -46 -81 0 -38 30 -96 63 -122 21 -16 22 -26 27 -271 5 -276 8 -287 61
-287 22 0 34 8 49 33 18 30 20 50 20 279 0 156 4 249 10 253 16 10 50 82 50
105 0 11 -16 43 -35 71 -30 45 -35 59 -35 111 0 78 -11 98 -55 98 -18 0 -37
-6 -42 -12z m37 -222 c0 -87 -9 -116 -36 -116 -12 0 -35 10 -49 23 -21 17 -27
32 -28 69 -2 56 18 77 76 78 l37 0 0 -54z"/>
<path d="M8567 2498 c-9 -7 -21 -34 -26 -60 -4 -26 -20 -61 -35 -78 -66 -79
-67 -225 -2 -279 14 -11 16 -44 16 -205 1 -252 14 -307 72 -293 35 9 48 47 48
136 0 43 3 140 7 216 6 138 6 139 38 174 79 88 83 135 20 219 -33 43 -47 73
-52 107 -9 68 -44 94 -86 63z m71 -178 c15 -29 7 -151 -12 -162 -21 -14 -78
-8 -102 11 -13 10 -21 21 -17 24 3 4 -1 17 -9 29 -30 47 -29 56 10 93 31 30
43 35 77 33 31 -2 42 -9 53 -28z"/>
<path d="M1896 2473 c-99 -4 -115 -11 -109 -47 3 -13 0 -32 -5 -42 -7 -13 -6
-30 2 -54 8 -27 18 -36 41 -40 45 -9 65 -1 65 25 0 13 -5 25 -12 27 -23 8 39
58 71 58 39 0 46 -13 27 -52 -27 -52 -20 -85 21 -107 32 -16 64 -14 87 8 12
10 41 30 66 44 36 20 46 31 48 55 5 44 -10 64 -67 95 -56 31 -98 36 -235 30z"/>
<path d="M4990 2446 c0 -16 18 -31 27 -22 3 3 -2 12 -11 21 -14 14 -16 14 -16
1z"/>
<path d="M2287 2376 c-7 -18 9 -39 52 -71 42 -30 81 -32 105 -6 27 29 6 57
-56 76 -64 19 -94 19 -101 1z"/>
<path d="M1616 2121 c-76 -11 -82 -24 -89 -193 -11 -233 -9 -285 9 -292 20 -8
201 -6 367 3 90 5 131 11 136 20 5 7 7 43 5 80 l-3 66 12 -80 12 -80 145 -8
c80 -4 195 -5 255 -2 121 5 142 16 129 65 -3 14 -9 105 -13 203 -9 241 15 222
-282 222 -211 -1 -232 -2 -241 -19 -9 -17 -11 -17 -29 3 -19 20 -29 21 -192
20 -95 -1 -194 -5 -221 -8z m317 -121 c-1 -14 -3 -65 -3 -115 l0 -90 -30 31
c-17 17 -32 40 -33 53 -1 22 -1 22 -20 -4 -10 -14 -39 -37 -63 -51 -24 -14
-44 -27 -44 -28 0 -1 14 -3 31 -4 17 -1 41 -8 53 -14 19 -11 14 -13 -39 -20
-33 -4 -79 -9 -103 -12 l-43 -6 2 138 c1 75 6 140 11 143 5 3 70 5 146 5 l137
-1 -2 -25z m490 21 c32 -12 -6 -35 -45 -28 -20 4 -43 1 -58 -8 -19 -11 -21
-14 -8 -15 10 0 25 -11 34 -25 13 -20 14 -30 5 -53 -13 -31 -71 -72 -102 -72
-12 0 -30 -11 -41 -25 -11 -14 -24 -25 -29 -25 -14 0 -8 243 6 252 13 10 214
9 238 -1z"/>
<path d="M1880 1950 c-9 -6 -10 -10 -3 -10 6 0 15 5 18 10 8 12 4 12 -15 0z"/>
<path d="M2190 1963 c0 -32 16 -48 33 -35 8 7 17 21 19 30 4 14 -2 18 -23 20
-22 2 -29 -2 -29 -15z"/>
<path d="M7884 2057 c-70 -46 -89 -109 -57 -183 12 -28 16 -71 17 -155 1 -100
4 -120 20 -138 26 -29 50 -26 79 8 19 23 25 45 30 104 5 56 15 93 42 148 51
108 48 122 -43 192 l-57 44 -31 -20z"/>
<path d="M3866 1658 c-16 -60 -23 -73 -46 -78 -34 -8 -40 -47 -9 -58 12 -5 29
-24 38 -43 23 -49 57 -51 76 -5 12 28 21 35 47 38 29 3 33 7 36 36 3 31 2 32
-32 32 -34 0 -36 2 -36 33 0 18 -5 38 -12 45 -16 16 -58 15 -62 0z"/>
<path d="M5005 1520 c-4 -7 0 -19 9 -28 15 -15 16 -15 16 1 0 9 0 20 1 24 1
13 -19 15 -26 3z"/>
<path d="M4727 852 c-45 -3 -48 -5 -45 -29 4 -32 17 -37 155 -54 65 -8 139
-10 205 -5 321 22 382 24 469 19 89 -5 210 4 182 14 -7 3 -13 13 -13 23 0 12
-11 20 -32 25 -33 8 -832 14 -921 7z"/>
<path d="M5968 853 c6 -2 18 -2 25 0 6 3 1 5 -13 5 -14 0 -19 -2 -12 -5z"/>
<path d="M5855 840 c-24 -6 -18 -8 29 -9 33 0 57 1 55 3 -11 9 -57 12 -84 6z"/>
<path d="M6218 843 c7 -3 16 -2 19 1 4 3 -2 6 -13 5 -11 0 -14 -3 -6 -6z"/>
</g>
</svg>
